Coordinates
version=1
nRows=24
nColumns=22
inDegrees=yes

Units are S.I. units (second, meters, Newtons, ...)
If the header above contains a line with 'inDegrees', this indicates whether rotational values are in degrees (yes) or radians (no).

endheader
time	pelvis_tilt	pelvis_list	pelvis_rotation	pelvis_tx	pelvis_ty	pelvis_tz	hip_flexion_r	hip_adduction_r	hip_rotation_r	knee_angle_r	ankle_angle_r	subtalar_angle_r	hip_flexion_l	hip_adduction_l	hip_rotation_l	knee_angle_l	ankle_angle_l	subtalar_angle_l	lumbar_extension	lumbar_bending	lumbar_rotation
      4.90000000	     -4.30609873	     -3.29935637	   -120.60087122	      0.61421623	      0.90586411	      0.44668901	     16.36079104	      5.61346044	    -23.38099568	    -21.73297266	      1.22565697	    -12.20937694	     -6.38808514	    -10.32998868	    -14.38145919	    -57.37219552	    -16.03573761	      8.48397465	     -8.28449446	     -0.41283981	     -9.06619934
      4.91000000	     -4.27410147	     -3.43670815	   -121.59045823	      0.60961101	      0.90705606	      0.45186978	     15.69981812	      5.80186977	    -22.61214580	    -21.57887346	      1.44420886	    -12.25956665	     -5.19809287	    -10.21412459	    -13.90659352	    -58.76701521	    -15.02810263	      8.53259470	     -8.50273002	     -0.65982813	     -8.93062028
      4.92000000	     -4.27391473	     -3.58272693	   -122.56153665	      0.60511159	      0.90832419	      0.45697892	     14.97825732	      5.98383994	    -21.92523794	    -21.35851295	      1.65194806	    -12.26643820	     -4.08441131	    -10.12829048	    -13.48481900	    -59.89534689	    -13.73654187	      8.67588982	     -8.72733381	     -0.87713690	     -8.79564735
      4.93000000	     -4.25966521	     -3.60953097	   -123.55840007	      0.60064064	      0.90947784	      0.46193832	     14.34532205	      6.22194822	    -21.16395916	    -21.06471828	      1.79757628	    -12.25586564	     -2.89480665	    -10.12555061	    -13.15918064	    -60.80509570	    -12.31701180	      8.92863411	     -8.80357906	     -1.03576884	     -8.61236147
      4.94000000	     -4.25271628	     -3.62701795	   -124.56712242	      0.59629519	      0.91066670	      0.46678714	     13.72890066	      6.43744970	    -20.41544229	    -20.79336469	      1.92562525	    -12.18767651	     -1.75701951	    -10.14015207	    -12.87458243	    -61.46452058	    -10.72675379	      9.20695271	     -8.86597366	     -1.16993231	     -8.40888654
      4.95000000	     -4.23858150	     -3.59530556	   -125.61299589	      0.59205460	      0.91181336	      0.47145698	     13.18815434	      6.65568560	    -19.60155230	    -20.55974737	      2.01599496	    -12.06067340	     -0.62132959	    -10.19367435	    -12.64812966	    -61.90081428	     -9.04937703	      9.47722882	     -8.87358177	     -1.27122486	     -8.16544328
      4.96000000	     -4.21797241	     -3.52549436	   -126.70178141	      0.58790890	      0.91292015	      0.47593659	     12.71323726	      6.87653093	    -18.71630788	    -20.36436625	      2.08909385	    -11.89320105	      0.49646401	    -10.28402810	    -12.47569314	    -62.11647332	     -7.32531438	      9.67590456	     -8.84058249	     -1.34768716	     -7.86857385
      4.97000000	     -4.18538895	     -3.41892530	   -127.82912079	      0.58389352	      0.91395417	      0.48017584	     12.32125094	      7.09943532	    -17.73397093	    -20.22742338	      2.13306792	    -11.67462582	      1.60999422	    -10.41244670	    -12.34577014	    -62.13422188	     -5.60238420	      9.77160683	     -8.77943288	     -1.40321030	     -7.55307503
      4.98000000	     -4.15213676	     -3.29287583	   -128.98692261	      0.57996358	      0.91493540	      0.48422727	     11.96395662	      7.32860294	    -16.69096594	    -20.10920022	      2.17788854	    -11.44311565	      2.68501889	    -10.58134287	    -12.24923910	    -61.94870952	     -3.90646099	      9.73989240	     -8.70294865	     -1.44379066	     -7.20829357
      4.99000000	     -4.11816520	     -3.15505473	   -130.15750843	      0.57613050	      0.91585977	      0.48810784	     11.62775745	      7.56015881	    -15.60632579	    -19.99724216	      2.22125544	    -11.20366490	      3.71620565	    -10.78595743	    -12.16897098	    -61.56536837	     -2.26880197	      9.56226280	     -8.62454154	     -1.47207329	     -6.87368118
      5.00000000	     -4.08477135	     -3.01493030	   -131.32670040	      0.57237369	      0.91672324	      0.49183766	     11.28826999	      7.79048367	    -14.50289164	    -19.86624344	      2.26354569	    -10.96014573	      4.69667407	    -11.02598581	    -12.10144879	    -60.99757306	     -0.71401054	      9.20816061	     -8.55189180	     -1.49851741	     -6.57499123
      5.01000000	     -4.05952402	     -2.87978814	   -132.48381864	      0.56866667	      0.91754582	      0.49546531	     10.92034660	      8.01777540	    -13.41649707	    -19.69726379	      2.31459689	    -10.73877978	      5.60378621	    -11.29280482	    -12.03015730	    -60.23329547	      0.74335228	      8.70074014	     -8.48966133	     -1.52309537	     -6.31331530
      5.02000000	     -4.04140611	     -2.74801557	   -133.63347341	      0.56500605	      0.91831623	      0.49899321	     10.52036246	      8.24115027	    -12.34861488	    -19.48150321	      2.37769631	    -10.55697160	      6.43527316	    -11.58322688	    -11.96123975	    -59.27712644	      2.08983233	      8.10948866	     -8.43861901	     -1.54535773	     -6.07807726
      5.03000000	     -4.02356261	     -2.61585239	   -134.77836146	      0.56137491	      0.91903051	      0.50243562	     10.09627351	      8.45665967	    -11.29971187	    -19.22169004	      2.45036213	    -10.41038322	      7.19252788	    -11.88586961	    -11.89251013	    -58.12839977	      3.30909859	      7.47902213	     -8.38691773	     -1.56997464	     -5.86019038
      5.04000000	     -3.99962175	     -2.48986641	   -135.91849643	      0.55778535	      0.91969518	      0.50580191	      9.65821189	      8.64936484	    -10.26889680	    -18.93735354	      2.52548902	    -10.28129257	      7.87069373	    -12.18572959	    -11.82999930	    -56.78531150	      4.41382833	      6.78750187	     -8.33460977	     -1.60718694	     -5.67553288
      5.05000000	     -3.96394990	     -2.36479191	   -137.05729979	      0.55426583	      0.92029207	      0.50909155	      9.23141129	      8.81632636	     -9.25070209	    -18.65577022	      2.60820151	    -10.16999256	      8.47883573	    -12.47258947	    -11.76384021	    -55.25505885	      5.40811768	      6.11809909	     -8.28032730	     -1.65125720	     -5.50853529
      5.06000000	     -3.91162422	     -2.23124811	   -138.20801494	      0.55083194	      0.92081333	      0.51231921	      8.84038096	      8.95868882	     -8.23373604	    -18.40320597	      2.70180991	    -10.06722040	      9.02511804	    -12.74193680	    -11.69334072	    -53.54655194	      6.28759175	      5.52094396	     -8.20834459	     -1.69399597	     -5.33783722
      5.07000000	     -3.84002949	     -2.09415477	   -139.35737210	      0.54752821	      0.92126860	      0.51551461	      8.49647843	      9.06704362	     -7.22990159	    -18.19741298	      2.80232400	     -9.95613875	      9.51213114	    -12.98162928	    -11.60498052	    -51.66617544	      7.06588018	      4.98146106	     -8.12569551	     -1.73488962	     -5.18257732
      5.08000000	     -3.74007950	     -1.93056940	   -140.50625697	      0.54437205	      0.92161381	      0.51870822	      8.23987098	      9.15028308	     -6.27714522	    -18.06578314	      2.91514926	     -9.85223761	      9.96645910	    -13.20202722	    -11.49108798	    -49.63335465	      7.78488545	      4.62390868	     -8.00520122	     -1.75439968	     -5.02145240
      5.09000000	     -3.63917269	     -1.78907502	   -141.65100536	      0.54139399	      0.92197133	      0.52189946	      7.99533463	      9.20039285	     -5.27278198	    -17.96840713	      3.02507414	     -9.68735678	     10.33586995	    -13.37041041	    -11.32939099	    -47.44778752	      8.31504896	      4.21112843	     -7.91503631	     -1.77127106	     -4.89750247
      5.10000000	     -3.49746840	     -1.59997646	   -142.79262832	      0.53855958	      0.92217476	      0.52509899	      7.87452057	      9.24067023	     -4.33786244	    -17.96274690	      3.14632147	     -9.56322105	     10.70258574	    -13.53211911	    -11.12138881	    -45.14360626	      8.83811267	      4.05886649	     -7.75875595	     -1.75541404	     -4.75689287
      5.11000000	     -3.34164065	     -1.41416042	   -143.93995060	      0.53584762	      0.92234308	      0.52829805	      7.78955366	      9.26141889	     -3.38052403	    -17.99300042	      3.27397558	     -9.40740583	     11.00122221	    -13.65855078	    -10.86506108	    -42.71560988	      9.22282882	      3.97597482	     -7.59838944	     -1.73098363	     -4.62389887
      5.12000000	     -3.17236138	     -1.22518457	   -145.09623264	      0.53320692	      0.92244973	      0.53145743	      7.74769115	      9.27416710	     -2.41393834	    -18.06752633	      3.40914569	     -9.23102951	     11.23512986	    -13.77073706	    -10.56850289	    -40.19013533	      9.51668437	      4.00358024	     -7.42687523	     -1.70332635	     -4.49618237
      5.13000000	     -2.98737372	     -1.02830554	   -146.26258264	      0.53059592	      0.92248666	      0.53458931	      7.73761374	      9.28259306	     -1.45251891	    -18.15995235	      3.55171527	     -9.05101268	     11.40872725	    -13.87509948	    -10.22037741	    -37.59048148	      9.73067076	      4.14812636	     -7.23323296	     -1.66701138	     -4.35939589
